<?xml version="1.0" encoding="UTF-8" standalone="no"?>
<svg
   width="24"
   height="24"
   viewBox="0 0 24 24"
   xmlns="http://www.w3.org/2000/svg">
  <path
     d="M 19.35,10.04 C 18.67,6.59 15.64,4 12,4 9.11,4 6.6,5.64 5.35,8.04 2.34,8.36 0,10.91 0,14 c 0,3.31 2.69,6 6,6 h 13 c 2.76,0 5,-2.24 5,-5 0,-2.64 -2.05,-4.78 -4.65,-4.96 z M 19,18 H 6 C 3.79,18 2,16.21 2,14 2,11.95 3.53,10.24 5.56,10.03 L 6.63,9.92 7.13,8.97 C 8.08,7.14 9.94,6 12,6 c 2.62,0 4.88,1.86 5.39,4.43 L 17.69,12 H 19 c 1.66,0 3,1.34 3,3 0,1.66 -1.34,3 -3,3 z"/>
  <polygon points="12,11 8,15 10.5,15 10.5,18 13.5,18 13.5,15 16,15"/>
</svg>
