<?xml version="1.0" encoding="UTF-8" standalone="no"?>
<svg
   width="24"
   height="24"
   viewBox="0 0 24 24"
   xmlns="http://www.w3.org/2000/svg"
   xmlns:svg="http://www.w3.org/2000/svg">
  <defs
     />
  <path
     d="M 4,2 C 2.354992,2 1,3.354992 1,5 v 13 c 0,1.645008 1.354992,3 3,3 h 14.443359 c 1.370403,0.0092 2.583204,-0.923075 2.925782,-2.25 a 1.0001,1.0001 0 0 0 0,-0.002 L 22.908203,12.75 v -0.002 C 23.301143,11.221881 22.3884,9.7527379 21,9.2382813 V 8 C 21,6.354992 19.645008,5 18,5 H 12.070313 C 11.732817,4.9999444 11.419998,4.8326458 11.234375,4.5507812 a 1.0001,1.0001 0 0 0 -0.0059,-0.00977 L 10.425781,3.3496094 c -7.94e-4,-0.00121 -0.0031,-7.486e-4 -0.0039,-0.00195 C 9.8615388,2.4993607 8.9074166,1.9900312 7.890625,2 Z m 0,2 h 3.9003906 a 1.0001,1.0001 0 0 0 0.00977,0 c 0.3410981,-0.00334 0.6561535,0.1643212 0.8437501,0.4492187 a 1.0001,1.0001 0 0 0 0.00781,0.00977 L 9.5644531,5.6503906 C 10.118675,6.4919656 11.062637,6.9998341 12.070313,7 H 18 c 0.564129,0 1,0.4358712 1,1 V 9 H 9.2402344 a 1.0001,1.0001 0 0 0 -0.023437,0 c -1.1061118,0.025628 -2.111788,0.6621866 -2.609375,1.650391 l -1.4960938,2.890625 a 1,1 0 0 0 0.4296875,1.347656 1,1 0 0 0 1.3476563,-0.429688 l 1.5,-2.90039 a 1.0001,1.0001 0 0 0 0.00391,-0.0098 C 8.5595665,11.217191 8.8924649,11.008601 9.2636719,11 H 20 a 1.0001,1.0001 0 0 0 0.002,0 c 0.67915,-0.0012 1.140492,0.592415 0.970703,1.25 a 1.0001,1.0001 0 0 0 -0.002,0.002 L 19.431641,18.25 c -0.115902,0.448929 -0.510972,0.753129 -0.97461,0.75 a 1.0001,1.0001 0 0 0 -0.0078,0 H 4 C 3.4358712,19 3,18.564129 3,18 V 5 C 3,4.4358712 3.4358712,4 4,4 Z"
     />
</svg>
