<svg xmlns="http://www.w3.org/2000/svg" width="24" height="24" viewBox="0 0 24 24">
    <path d="M 5,2 C 3.354992,2 2,3.354992 2,5 v 14 c 0,1.645008 1.354992,3 3,3 h 1 4.300781 a 1,1 0 0 0 1,-1 1,1 0 0 0 -1,-1 H 8.4140625 l 7.3789065,-7.378906 c 0.395877,-0.395797 1.006454,-0.399651 1.40625,-0.0078 l 3.09375,3.09375 A 1.0001,1.0001 0 0 0 22,15 V 5 C 22,3.354992 20.645008,2 19,2 Z m 0,2 h 14 c 0.564129,0 1,0.4358712 1,1 v 7.585938 l -1.392578,-1.392579 a 1.0001,1.0001 0 0 0 -0.0078,-0.0078 C 17.433001,10.042156 15.53408,10.05209 14.378906,11.207031 L 5.5859375,20 H 5 C 4.4358712,20 4,19.564129 4,19 V 5 C 4,4.4358712 4.4358712,4 5,4 Z"/>
    <path d="m 16.292969,15.792969 -3,3 a 1,1 0 0 0 0,1.414062 1,1 0 0 0 1.414062,0 L 17,17.914062 l 2.292969,2.292969 a 1,1 0 0 0 1.414062,0 1,1 0 0 0 0,-1.414062 l -3,-3 a 1.0001,1.0001 0 0 0 -1.414062,0 z"/>
    <path d="m 17,15.5 a 1,1 0 0 0 -1,1 V 22 a 1,1 0 0 0 1,1 1,1 0 0 0 1,-1 v -5.5 a 1,1 0 0 0 -1,-1 z"/>
    <path d="M 9,6 C 7.354992,6 6,7.354992 6,9 c 0,1.645008 1.354992,3 3,3 1.645008,0 3,-1.354992 3,-3 C 12,7.354992 10.645008,6 9,6 Z m 0,2 c 0.5641288,0 1,0.4358712 1,1 0,0.5641288 -0.4358712,1 -1,1 C 8.4358712,10 8,9.5641288 8,9 8,8.4358712 8.4358712,8 9,8 Z"/>
</svg>
